# xmcd CD database file
#
# Track frame offsets:
#	150
#	20385
#	44915
#	59975
#	80967
#	98640
#	119817
#	133242
#	149385
#	173592
#	189442
#	209675
#	223662
#	240015
#	262117
#	272697
#	294957
#	318667
#
# Disc length: 4577 seconds
#
# Revision: 4
# Processed by: cddbd v1.5.2PL0 Copyright (c) Steve Scherf et al.
# Submitted via: CDex 1.51
#
DISCID=2711df12
DTITLE=Various Artist - Living The Blues - THE '90s
DYEAR=2000
DGENRE=Blues
TTITLE0=Ernie Johnson - I'm In The Mood For The Blues
TTITLE1=Robert Cray - A Picture Of A Broken Heart
TTITLE2=Holmes Brothers, The - Start Stoppin'
TTITLE3=Ruby Andrews - Footprints On The Ceiling
TTITLE4=Earl King - Sexual Telepathy
TTITLE5=Joe Louis Walker - High Blood Pressure
TTITLE6=R. L. Burnside - .44 Pistol
TTITLE7=B. B. King - Broken Promise
TTITLE8=Ruth Brown - I'm Gonna Move To The Outskirts Of Town
TTITLE9=Magic Slim - Cold Women With Warm Hearts
TTITLE10=Otis Rush - You Fried Yourself
TTITLE11=Johnny Copeland - The Jungle
TTITLE12=Snooks Eaglin - Baby Please Come Home
TTITLE13=Bobby Parker - Blues Get Off My Shoulder
TTITLE14=Keb' mo' - Am I Wrong
TTITLE15=Johnny Adams - Man Of My Word
TTITLE16=Peggy Scott-Adams - Bill
TTITLE17=Artie "Blues Boy" White - Man Of The House
EXTD=YEAR: 2000
EXTT0=
EXTT1=
EXTT2=
EXTT3=
EXTT4=
EXTT5=
EXTT6=
EXTT7=
EXTT8=
EXTT9=
EXTT10=
EXTT11=
EXTT12=
EXTT13=
EXTT14=
EXTT15=
EXTT16=
EXTT17=
PLAYORDER=
